<svg xmlns="http://www.w3.org/2000/svg" width="40" height="40" viewBox="0 0 40 40">
    <g fill="none" fill-rule="evenodd">
        <g>
            <g>
                <g>
                    <path fill="#D8D8D8" fill-opacity="0" d="M0 0H21V21H0z" transform="translate(-1153 -676) translate(1153 676) translate(10 10)"/>
                    <path fill="#262626" fill-rule="nonzero" d="M8.367 0c.994 0 2.058.206 3.193.62v2.207l-.325-.09c-.851-.227-1.577-.34-2.176-.34-1.153 0-2.044.3-2.674.901-.63.601-1.006 1.324-1.13 2.167-.16 1.077.106 2.002.798 2.773.71.79 1.685 1.185 2.926 1.185h2.581V11.9H6.32l-.262.006c-.946.045-1.728.34-2.346.882-.674.593-1.01 1.356-1.01 2.289 0 1.04.425 1.876 1.276 2.504.852.628 1.97.942 3.353.942h3.432L9.99 21H7.463l-.387-.005c-2.035-.06-3.663-.587-4.881-1.583C.9 18.352.252 16.899.252 15.05c0-1.31.373-2.437 1.118-3.379.745-.942 1.747-1.62 3.006-2.033l-.186-.215-.216-.232c-.557-.629-.941-1.35-1.154-2.164-.24-.915-.284-1.79-.133-2.625.15-.835.448-1.575.891-2.221C4.394 1.014 5.68.305 7.436.054c.39-.036.7-.054.931-.054zm12.476 4.014v1.16h-7.718v-1.16h7.718z" transform="translate(-1153 -676) translate(1153 676) translate(10 10)"/>
                </g>
            </g>
        </g>
    </g>
</svg>
