<svg xmlns="http://www.w3.org/2000/svg" width="40" height="40" viewBox="0 0 40 40">
    <g fill="none" fill-rule="evenodd">
        <g fill="#262626" fill-rule="nonzero">
            <g>
                <path d="M24.448 24.069c.657 0 1.19.533 1.19 1.19v5.551c0 .657-.533 1.19-1.19 1.19h-9.517c-.657 0-1.19-.533-1.19-1.19V25.26c0-.657.533-1.19 1.19-1.19zm5.255-9.517c1.476 0 2.676 1.2 2.676 2.676v9.32c0 1.475-1.2 2.676-2.676 2.676h-1.686V25.26c0-1.968-1.6-3.57-3.569-3.57h-9.517c-1.968 0-3.569 1.602-3.569 3.57v3.965H9.677C8.2 29.224 7 28.024 7 26.547v-9.319c0-1.476 1.2-2.676 2.677-2.676zM11.76 18.12l-.123.006c-.6.06-1.067.567-1.067 1.183 0 .657.533 1.19 1.19 1.19.657 0 1.19-.533 1.19-1.19 0-.657-.533-1.19-1.19-1.19zM25.836 9c1.205 0 2.181.976 2.181 2.181v1.289c0 .274-.222.496-.495.496H11.858c-.274 0-.496-.222-.496-.496V11.18c0-1.205.977-2.181 2.181-2.181h12.293z" transform="translate(-1153 -578) translate(1153 578)"/>
            </g>
        </g>
    </g>
</svg>
