<svg xmlns="http://www.w3.org/2000/svg" width="40" height="40" viewBox="0 0 40 40">
    <g fill="none" fill-rule="evenodd">
        <g fill-rule="nonzero">
            <g>
                <g>
                    <g>
                        <path fill="#000" d="M6.859 7.455c.14 1.354.745 2.619 1.711 3.578.99-.946 1.606-2.216 1.737-3.578H6.86z" transform="translate(-113 -287) translate(113 287) translate(5 5)"/>
                        <path fill="#262626" d="M3.423 19.266c.344 0 .622.278.622.622-.006.34-.281.615-.622.622H1.258c.227 4.522 3.952 8.075 8.479 8.09.334-.007.614.25.635.584.002.027.003.054.002.08-.016.337-.3.596-.637.58-5.366-.02-9.71-4.37-9.724-9.736.01-.044.023-.087.04-.13-.003-.03-.003-.06 0-.09v-.013c0-.337.272-.61.609-.61zm23.622-5.329c.86.007 1.55.71 1.543 1.569v11.538c0 .86-.697 1.556-1.556 1.556H15.493c-.859 0-1.555-.696-1.555-1.556v-9.879h.401c1.55 0 2.807-1.251 2.814-2.8v-.428zM14.352 1.245c.867.007 1.563.715 1.556 1.581v11.526c-.007.856-.7 1.549-1.556 1.556H2.827l-.143-.005c-.8-.066-1.432-.733-1.44-1.551V2.826c0-.873.71-1.581 1.583-1.581zM20.11 0c5.369.014 9.716 4.367 9.723 9.737-.005.04-.013.078-.026.116.004.039.004.078 0 .117 0 .344-.278.622-.622.622h-2.749c-.34-.007-.615-.281-.622-.622 0-.344.279-.622.622-.622h2.153c-.202-4.536-3.94-8.108-8.48-8.103-.343 0-.622-.279-.622-.623.007-.34.282-.615.623-.622z" transform="translate(-113 -287) translate(113 287) translate(5 5)"/>
                        <path fill="#000" d="M21.263 18.786L19.927 22.442 22.611 22.442z" transform="translate(-113 -287) translate(113 287) translate(5 5)"/>
                    </g>
                    <path fill="#FFF" d="M9.306 14l.341-1.18H8.13c-.611 0-1.105-.15-1.482-.448-.376-.3-.565-.697-.565-1.193 0-.444.15-.807.447-1.09.298-.281.683-.422 1.153-.422H10v-1.18H8.859c-.55 0-.98-.188-1.294-.564-.306-.367-.424-.808-.353-1.32.055-.402.221-.746.5-1.032.278-.287.672-.43 1.182-.43.298 0 .667.068 1.106.205V4.295C9.498 4.098 9.027 4 8.588 4c-.102 0-.239.009-.412.026-.776.12-1.345.457-1.705 1.012-.196.308-.328.66-.395 1.058-.066.398-.047.814.06 1.25.105.436.307.816.605 1.141l.083.103c-.557.196-1 .519-1.33.968-.33.448-.494.985-.494 1.609 0 .88.286 1.572.859 2.077.572.504 1.349.756 2.33.756h1.117zM19.98 25v-.88H17.7v-2.27h1.86v-.78H17.7v-2.01h2.17v-.88h-3.2V25h3.31zm1.89 0v-4.26l-.05-.74.06-.01.19.46L24.56 25h1.05v-6.82h-1.03v4.26l.04.74-.06.01-.03-.07c-.013-.053-.035-.117-.065-.19s-.058-.133-.085-.18l-2.48-4.57h-1.06V25h1.03z" transform="translate(-113 -287) translate(113 287) translate(5 5)"/>
                </g>
            </g>
        </g>
    </g>
</svg>
