<svg xmlns="http://www.w3.org/2000/svg" width="40" height="40" viewBox="0 0 40 40">
    <g fill="none" fill-rule="evenodd">
        <g fill="#262626" fill-rule="nonzero">
            <g>
                <path d="M35 11.723c-1.067.461-2.214.774-3.417.913 1.228-.718 2.171-1.855 2.616-3.212-1.15.666-2.423 1.149-3.778 1.409C29.336 9.705 27.789 9 26.077 9c-3.285 0-5.95 2.6-5.95 5.806 0 .456.053.898.155 1.324-4.945-.242-9.329-2.554-12.264-6.068-.512.858-.805 1.856-.805 2.92 0 2.014 1.05 3.792 2.646 4.833-.974-.03-1.892-.291-2.694-.727v.073c0 2.814 2.051 5.16 4.772 5.693-.498.133-1.025.204-1.567.204-.384 0-.756-.036-1.12-.103.758 2.306 2.954 3.985 5.559 4.032-2.037 1.557-4.602 2.485-7.39 2.485-.48 0-.954-.027-1.419-.081C8.632 31.039 11.76 32 15.12 32c10.943 0 16.928-8.848 16.928-16.521 0-.252-.006-.502-.017-.751 1.163-.818 2.172-1.84 2.969-3.005z" transform="translate(-1153 -432) translate(1153 432)"/>
            </g>
        </g>
    </g>
</svg>
