<svg xmlns="http://www.w3.org/2000/svg" width="40" height="40" viewBox="0 0 40 40">
    <g fill="none" fill-rule="evenodd">
        <g fill="#262626" fill-rule="nonzero">
            <g>
                <path d="M20.503 8C26.843 8 32 13.16 32 19.5S26.844 31 20.503 31c-2.339 0-4.508-.696-6.327-1.9l-4.42 1.413 1.433-4.273C9.811 24.347 9 22.016 9 19.5 9 13.158 14.156 8 20.497 8zm-4.333 5.26c-.44 0-.898.13-1.176.412-.337.345-1.175 1.149-1.175 2.8 0 1.65 1.203 3.245 1.365 3.468.17.223 2.346 3.657 5.726 5.057 2.642 1.095 3.427.993 4.028.865.878-.19 1.979-.84 2.256-1.623.278-.784.278-1.453.197-1.595-.082-.142-.304-.223-.642-.393l-.199-.098c-.553-.274-1.823-.896-2.093-.99-.304-.115-.595-.075-.825.25-.323.453-.64.913-.898 1.19-.203.216-.533.243-.81.128-.373-.155-1.414-.52-2.698-1.663-.994-.885-1.67-1.988-1.866-2.318-.195-.338-.02-.534.136-.716.17-.21.33-.36.5-.555.17-.196.264-.298.372-.528.115-.223.033-.453-.049-.622-.08-.17-.756-1.82-1.033-2.488-.223-.534-.393-.554-.73-.568-.116-.006-.243-.013-.386-.013z" transform="translate(-1153 -480) translate(1153 480)"/>
            </g>
        </g>
    </g>
</svg>
